<svg width="2517" height="2513" viewBox="0 0 2517 2513" fill="none" xmlns="http://www.w3.org/2000/svg">
<path fill-rule="evenodd" clip-rule="evenodd" d="M2494.93 1304.6C2507.12 1293.37 2507.9 1274.4 2496.68 1262.21L1355.12 22.0723C1343.9 9.88202 1324.93 9.09654 1312.73 20.3178L22.0724 1208.39C9.88221 1219.61 9.09661 1238.59 20.3179 1250.78L1161.88 2490.91C1173.1 2503.1 1192.07 2503.89 1204.27 2492.67L2494.93 1304.6ZM1856.68 1285.38C1866.02 1276.77 1866.62 1262.22 1858.02 1252.88L1311.64 659.32C1303.04 649.974 1288.49 649.372 1279.15 657.975L660.324 1227.61C650.978 1236.21 650.376 1250.76 658.979 1260.11L1205.36 1853.66C1213.96 1863.01 1228.51 1863.61 1237.85 1855.01L1856.68 1285.38Z" fill="white"/>
<g filter="url(#filter0_d)">
<path d="M1508.51 1456.74L990.699 1444.34L866.678 1764.13L698.6 1760.11L1200.18 535.444L1342.79 538.859L1786.01 1786.15L1618.78 1782.14L1508.51 1456.74ZM1043.15 1311.4L1463.34 1321.46L1266.66 738.335L1043.15 1311.4Z" fill="#0AB465"/>
<path d="M1508.51 1456.74L1509.46 1456.42L1509.24 1455.76L1508.54 1455.74L1508.51 1456.74ZM990.699 1444.34L990.723 1443.34L990.021 1443.33L989.767 1443.98L990.699 1444.34ZM866.678 1764.13L866.654 1765.13L867.357 1765.15L867.611 1764.49L866.678 1764.13ZM698.6 1760.11L697.675 1759.73L697.125 1761.07L698.577 1761.11L698.6 1760.11ZM1200.18 535.444L1200.2 534.444L1199.51 534.428L1199.25 535.065L1200.18 535.444ZM1342.79 538.859L1343.73 538.524L1343.5 537.876L1342.81 537.859L1342.79 538.859ZM1786.01 1786.15L1785.99 1787.15L1787.44 1787.18L1786.96 1785.81L1786.01 1786.15ZM1618.78 1782.14L1617.84 1782.46L1618.06 1783.13L1618.76 1783.14L1618.78 1782.14ZM1043.15 1311.4L1042.21 1311.04L1041.7 1312.37L1043.12 1312.4L1043.15 1311.4ZM1463.34 1321.46L1463.32 1322.46L1464.74 1322.5L1464.29 1321.14L1463.34 1321.46ZM1266.66 738.335L1267.61 738.016L1266.73 735.409L1265.73 737.972L1266.66 738.335ZM1508.54 1455.74L990.723 1443.34L990.676 1445.34L1508.49 1457.74L1508.54 1455.74ZM989.767 1443.98L865.746 1763.77L867.611 1764.49L991.632 1444.71L989.767 1443.98ZM866.702 1763.13L698.624 1759.11L698.577 1761.11L866.654 1765.13L866.702 1763.13ZM699.526 1760.49L1201.1 535.823L1199.25 535.065L697.675 1759.73L699.526 1760.49ZM1200.15 536.443L1342.76 539.859L1342.81 537.859L1200.2 534.444L1200.15 536.443ZM1341.84 539.194L1785.07 1786.48L1786.96 1785.81L1343.73 538.524L1341.84 539.194ZM1786.04 1785.15L1618.81 1781.14L1618.76 1783.14L1785.99 1787.15L1786.04 1785.15ZM1619.73 1781.82L1509.46 1456.42L1507.57 1457.06L1617.84 1782.46L1619.73 1781.82ZM1043.12 1312.4L1463.32 1322.46L1463.36 1320.46L1043.17 1310.4L1043.12 1312.4ZM1464.29 1321.14L1267.61 738.016L1265.72 738.655L1462.39 1321.78L1464.29 1321.14ZM1265.73 737.972L1042.21 1311.04L1044.08 1311.76L1267.59 738.699L1265.73 737.972Z" fill="black"/>
</g>
<defs>
<filter id="filter0_d" x="693.125" y="534.428" width="1098.32" height="1260.76" filterUnits="userSpaceOnUse" color-interpolation-filters="sRGB">
<feFlood flood-opacity="0" result="BackgroundImageFix"/>
<feColorMatrix in="SourceAlpha" type="matrix" values="0 0 0 0 0 0 0 0 0 0 0 0 0 0 0 0 0 0 127 0"/>
<feOffset dy="4"/>
<feGaussianBlur stdDeviation="2"/>
<feColorMatrix type="matrix" values="0 0 0 0 0 0 0 0 0 0 0 0 0 0 0 0 0 0 0.25 0"/>
<feBlend mode="normal" in2="BackgroundImageFix" result="effect1_dropShadow"/>
<feBlend mode="normal" in="SourceGraphic" in2="effect1_dropShadow" result="shape"/>
</filter>
</defs>
</svg>
