<svg width="90" height="26" viewBox="0 0 90 26" fill="none" xmlns="http://www.w3.org/2000/svg">
<path d="M16.7344 20.7266H7.48828L5.73047 26H0.123047L9.65039 0.40625H14.5371L24.1172 26H18.5098L16.7344 20.7266ZM8.91211 16.4551H15.3105L12.0938 6.875L8.91211 16.4551ZM33.3984 0.40625L39.9727 18.9688L46.5117 0.40625H53.4375V26H48.1465V19.0039L48.6738 6.92773L41.7656 26H38.1445L31.2539 6.94531L31.7812 19.0039V26H26.5078V0.40625H33.3984Z" fill="#198754"/>
<path d="M63.6504 26H58.377V0.40625H63.6504V26ZM89.3672 26H84.0938L73.8281 9.16016V26H68.5547V0.40625H73.8281L84.1113 17.2812V0.40625H89.3672V26Z" fill="#242424"/>
</svg>
