<svg width="113" height="26" viewBox="0 0 113 26" fill="none" xmlns="http://www.w3.org/2000/svg">
<path d="M16.7344 20.7266H7.48828L5.73047 26H0.123047L9.65039 0.40625H14.5371L24.1172 26H18.5098L16.7344 20.7266ZM8.91211 16.4551H15.3105L12.0938 6.875L8.91211 16.4551ZM26.5078 26V0.40625H34.3828C36.6328 0.40625 38.6426 0.916016 40.4121 1.93555C42.1934 2.94336 43.582 4.38477 44.5781 6.25977C45.5742 8.12305 46.0723 10.2441 46.0723 12.623V13.8008C46.0723 16.1797 45.5801 18.2949 44.5957 20.1465C43.623 21.998 42.2461 23.4336 40.4648 24.4531C38.6836 25.4727 36.6738 25.9883 34.4355 26H26.5078ZM31.7812 4.67773V21.7637H34.3301C36.3926 21.7637 37.9688 21.0898 39.0586 19.7422C40.1484 18.3945 40.7051 16.4668 40.7285 13.959V12.6055C40.7285 10.0039 40.1895 8.03516 39.1113 6.69922C38.0332 5.35156 36.457 4.67773 34.3828 4.67773H31.7812Z" fill="#343434"/>
<path d="M56.8125 0.40625L63.3867 18.9688L69.9258 0.40625H76.8516V26H71.5605V19.0039L72.0879 6.92773L65.1797 26H61.5586L54.668 6.94531L55.1953 19.0039V26H49.9219V0.40625H56.8125ZM87.0645 26H81.791V0.40625H87.0645V26ZM112.781 26H107.508L97.2422 9.16016V26H91.9688V0.40625H97.2422L107.525 17.2812V0.40625H112.781V26Z" fill="#198754"/>
</svg>
